# This file uses centimeters as units for non-parametric coordinates.

mtllib M_Plant2.mtl
g default
v -0.250534 -0.006185 -0.454283
v 0.085266 0.057629 0.446476
v 1.353599 0.889750 -1.115770
v 1.689398 0.953564 -0.215011
v 0.028554 -0.079556 -0.012695
v 1.632686 0.816379 -0.674181
v 0.505487 0.558900 -0.776158
v 0.784574 0.485529 -0.334569
v 0.841286 0.622714 0.124601
v -0.252427 0.002875 -0.454219
v 0.083372 0.066689 0.446540
v 1.351705 0.898810 -1.115706
v 1.687505 0.962624 -0.214947
v 0.026660 -0.070496 -0.012631
v 1.630793 0.825439 -0.674117
v 0.503593 0.567961 -0.776094
v 0.782681 0.494590 -0.334505
v 0.839393 0.631775 0.124665
v 0.423364 -0.003840 0.107849
v -0.107835 0.025539 -0.407141
v -0.438308 0.794306 1.042175
v -0.969507 0.823686 0.527185
v 0.080682 -0.063506 -0.100414
v -0.780990 0.734641 0.833912
v 0.024891 0.482096 0.546586
v -0.317792 0.422431 0.338323
v -0.506308 0.511476 0.031596
v 0.424922 0.002994 0.106633
v -0.106277 0.032373 -0.408357
v -0.436750 0.801140 1.040958
v -0.967949 0.830520 0.525968
v 0.082239 -0.056672 -0.101631
v -0.779433 0.741475 0.832695
v 0.026448 0.488930 0.545370
v -0.316234 0.429265 0.337106
v -0.504750 0.518310 0.030380
v -0.524166 0.012710 0.184735
v 0.524166 0.012710 0.184735
v -0.524166 1.087518 -1.648303
v 0.524166 1.087518 -1.648303
v 0.025638 -0.097508 0.062069
v 0.025638 0.977300 -1.770968
v -0.524166 0.675014 -0.674826
v 0.025638 0.564796 -0.797491
v 0.524166 0.675014 -0.674826
v -0.524166 0.022474 0.187206
v 0.524166 0.022474 0.187206
v -0.524166 1.097282 -1.645831
v 0.524166 1.097282 -1.645831
v 0.025638 -0.087744 0.064541
v 0.025638 0.987065 -1.768496
v -0.524166 0.684778 -0.672355
v 0.025638 0.574560 -0.795020
v 0.524166 0.684778 -0.672355
v 0.506350 -0.025655 -0.018757
v -0.244903 0.147333 -0.331388
v -0.067870 0.288880 1.535139
v -0.819123 0.461867 1.222509
v 0.066188 -0.047239 -0.133932
v -0.508032 0.267295 1.419965
v 0.243807 0.237738 0.757879
v -0.196355 0.216153 0.642705
v -0.507446 0.410725 0.445249
v 0.507601 -0.017869 -0.017454
v -0.243652 0.155119 -0.330084
v -0.066619 0.296665 1.536442
v -0.817872 0.469653 1.223812
v 0.067438 -0.039454 -0.132628
v -0.506782 0.275080 1.421268
v 0.245057 0.245524 0.759182
v -0.195105 0.223939 0.644008
v -0.506196 0.418511 0.446552
v -0.403146 0.007484 0.033068
v 0.498616 0.106127 0.138089
v -0.248154 0.486873 -1.748048
v 0.653608 0.585516 -1.643027
v 0.091744 -0.060858 0.012415
v 0.246736 0.418531 -1.768702
v -0.340532 0.364519 -0.839915
v 0.154357 0.296177 -0.860568
v 0.561230 0.463162 -0.734894
v -0.404068 0.016205 0.032794
v 0.497694 0.114848 0.137815
v -0.249076 0.495594 -1.748322
v 0.652686 0.594237 -1.643301
v 0.090822 -0.052137 0.012140
v 0.245814 0.427252 -1.768976
v -0.341454 0.373240 -0.840189
v 0.153435 0.304897 -0.860842
v 0.560308 0.471883 -0.735168
v -0.144513 0.050513 0.412161
v 0.509592 0.096577 -0.322609
v -1.621884 0.413373 -0.880272
v -0.967779 0.459438 -1.615042
v 0.148178 -0.061760 -0.026576
v -1.329193 0.301101 -1.319009
v -0.879449 0.360341 -0.222667
v -0.586757 0.248068 -0.661405
v -0.225343 0.406406 -0.957438
v -0.145508 0.059917 0.411866
v 0.508598 0.105982 -0.322905
v -1.622879 0.422778 -0.880567
v -0.968773 0.468842 -1.615338
v 0.147184 -0.052355 -0.026872
v -1.330187 0.310505 -1.319305
v -0.880443 0.369746 -0.222963
v -0.587751 0.257473 -0.661700
v -0.226337 0.415810 -0.957733
v -0.181751 0.121983 -0.299083
v 0.136115 -0.026464 0.299286
v 1.059456 0.434203 -0.880980
v 1.377322 0.285756 -0.282611
v 0.024908 -0.047408 -0.029198
v 1.266116 0.264812 -0.611095
v 0.437749 0.366103 -0.567612
v 0.644408 0.196712 -0.297726
v 0.755615 0.217656 0.030758
v -0.180770 0.128484 -0.297991
v 0.137096 -0.019964 0.300378
v 1.060437 0.440704 -0.879889
v 1.378303 0.292257 -0.281520
v 0.025889 -0.040907 -0.028106
v 1.267096 0.271313 -0.610003
v 0.438730 0.372603 -0.566520
v 0.645389 0.203212 -0.296634
v 0.756596 0.224156 0.031849
v -0.017331 0.138459 -0.469300
v -0.103664 -0.017618 0.343245
v 1.620474 0.462534 -0.233034
v 1.534141 0.306457 0.579512
v 0.002664 -0.055864 -0.057824
v 1.640469 0.268211 0.178443
v 0.789204 0.407017 -0.332020
v 0.809199 0.212694 0.079457
v 0.702871 0.250940 0.480525
v -0.016811 0.146281 -0.467742
v -0.103144 -0.009796 0.344803
v 1.620995 0.470356 -0.231476
v 1.534662 0.314279 0.581070
v 0.003185 -0.048042 -0.056266
v 1.640990 0.276033 0.180001
v 0.789725 0.414839 -0.330462
v 0.809720 0.220516 0.081014
v 0.703392 0.258762 0.482083
v 0.355929 0.125487 -0.463248
v -0.409985 0.005924 0.108836
v 1.452826 0.553356 1.094715
v 0.686911 0.433793 1.666799
v 0.013169 -0.066884 -0.111421
v 1.110065 0.360985 1.446543
v 0.882874 0.463700 0.312918
v 0.540113 0.271329 0.664745
v 0.116959 0.344137 0.885002
v 0.355341 0.134656 -0.462119
v -0.410573 0.015092 0.109965
v 1.452238 0.562525 1.095845
v 0.686323 0.442961 1.667929
v 0.012581 -0.057715 -0.110291
v 1.109478 0.370154 1.447672
v 0.882286 0.472869 0.314047
v 0.539526 0.280498 0.665875
v 0.116371 0.353305 0.886131
v 0.196050 -0.012689 0.360934
v 0.215234 0.104197 -0.462481
v -1.410265 0.498941 0.396138
v -1.391082 0.615827 -0.427277
v 0.130451 -0.056840 -0.087643
v -1.475864 0.454790 -0.052439
v -0.584861 0.348630 0.394031
v -0.650459 0.304480 -0.054546
v -0.565677 0.465517 -0.429384
v 0.196256 -0.004779 0.362062
v 0.215440 0.112107 -0.461353
v -1.410059 0.506851 0.397266
v -1.390876 0.623737 -0.426150
v 0.130657 -0.048930 -0.086515
v -1.475658 0.462700 -0.051311
v -0.584655 0.356540 0.395159
v -0.650254 0.312389 -0.053418
v -0.565471 0.473426 -0.428257
vt 0.238977 0.748821
vt 0.331027 0.748821
vt 0.238977 0.937435
vt 0.331027 0.937435
vt 0.287253 0.748821
vt 0.287253 0.937435
vt 0.238977 0.840858
vt 0.287253 0.840858
vt 0.331027 0.840858
vt 0.238977 0.840858
vt 0.287253 0.840858
vt 0.287253 0.937435
vt 0.238977 0.937435
vt 0.331027 0.840858
vt 0.331027 0.937435
vt 0.238977 0.748821
vt 0.287253 0.748821
vt 0.331027 0.748821
vt 0.238977 0.840858
vt 0.238977 0.937435
vt 0.287253 0.937435
vt 0.287253 0.840858
vt 0.331027 0.937435
vt 0.331027 0.840858
vt 0.238977 0.748821
vt 0.287253 0.748821
vt 0.331027 0.748821
vt 0.238977 0.840858
vt 0.287253 0.840858
vt 0.287253 0.937435
vt 0.238977 0.937435
vt 0.331027 0.840858
vt 0.331027 0.937435
vt 0.238977 0.748821
vt 0.287253 0.748821
vt 0.331027 0.748821
vt 0.238977 0.840858
vt 0.238977 0.937435
vt 0.287253 0.937435
vt 0.287253 0.840858
vt 0.331027 0.937435
vt 0.331027 0.840858
vt 0.238977 0.748821
vt 0.287253 0.748821
vt 0.331027 0.748821
vt 0.238977 0.840858
vt 0.287253 0.840858
vt 0.287253 0.937435
vt 0.238977 0.937435
vt 0.331027 0.840858
vt 0.331027 0.937435
vt 0.238977 0.748821
vt 0.287253 0.748821
vt 0.331027 0.748821
vt 0.238977 0.840858
vt 0.238977 0.937435
vt 0.287253 0.937435
vt 0.287253 0.840858
vt 0.331027 0.937435
vt 0.331027 0.840858
vt 0.238977 0.748821
vt 0.287253 0.748821
vt 0.331027 0.748821
vt 0.238977 0.840858
vt 0.287253 0.840858
vt 0.287253 0.937435
vt 0.238977 0.937435
vt 0.331027 0.840858
vt 0.331027 0.937435
vt 0.238977 0.748821
vt 0.287253 0.748821
vt 0.331027 0.748821
vt 0.238977 0.840858
vt 0.238977 0.937435
vt 0.287253 0.937435
vt 0.287253 0.840858
vt 0.331027 0.937435
vt 0.331027 0.840858
vt 0.238977 0.748821
vt 0.287253 0.748821
vt 0.331027 0.748821
vt 0.238977 0.840858
vt 0.287253 0.840858
vt 0.287253 0.937435
vt 0.238977 0.937435
vt 0.331027 0.840858
vt 0.331027 0.937435
vt 0.238977 0.748821
vt 0.287253 0.748821
vt 0.331027 0.748821
vt 0.238977 0.840858
vt 0.238977 0.937435
vt 0.287253 0.937435
vt 0.287253 0.840858
vt 0.331027 0.937435
vt 0.331027 0.840858
vt 0.238977 0.748821
vt 0.287253 0.748821
vt 0.331027 0.748821
vt 0.238977 0.840858
vt 0.287253 0.840858
vt 0.287253 0.937435
vt 0.238977 0.937435
vt 0.331027 0.840858
vt 0.331027 0.937435
vt 0.238977 0.748821
vt 0.287253 0.748821
vt 0.331027 0.748821
vt 0.238977 0.840858
vt 0.238977 0.937435
vt 0.287253 0.937435
vt 0.287253 0.840858
vt 0.331027 0.937435
vt 0.331027 0.840858
vt 0.238977 0.748821
vt 0.287253 0.748821
vt 0.331027 0.748821
vt 0.238977 0.840858
vt 0.287253 0.840858
vt 0.287253 0.937435
vt 0.238977 0.937435
vt 0.331027 0.840858
vt 0.331027 0.937435
vt 0.238977 0.748821
vt 0.287253 0.748821
vt 0.331027 0.748821
vt 0.238977 0.840858
vt 0.238977 0.937435
vt 0.287253 0.937435
vt 0.287253 0.840858
vt 0.331027 0.937435
vt 0.331027 0.840858
vt 0.238977 0.748821
vt 0.287253 0.748821
vt 0.331027 0.748821
vt 0.238977 0.840858
vt 0.287253 0.840858
vt 0.287253 0.937435
vt 0.238977 0.937435
vt 0.331027 0.840858
vt 0.331027 0.937435
vt 0.238977 0.748821
vt 0.287253 0.748821
vt 0.331027 0.748821
vt 0.238977 0.840858
vt 0.238977 0.937435
vt 0.287253 0.937435
vt 0.287253 0.840858
vt 0.331027 0.937435
vt 0.331027 0.840858
vt 0.238977 0.748821
vt 0.287253 0.748821
vt 0.331027 0.748821
vt 0.238977 0.840858
vt 0.287253 0.840858
vt 0.287253 0.937435
vt 0.238977 0.937435
vt 0.331027 0.840858
vt 0.331027 0.937435
vt 0.238977 0.748821
vt 0.287253 0.748821
vt 0.331027 0.748821
vt 0.238977 0.840858
vt 0.238977 0.937435
vt 0.287253 0.937435
vt 0.287253 0.840858
vt 0.331027 0.937435
vt 0.331027 0.840858
vt 0.238977 0.748821
vt 0.287253 0.748821
vt 0.331027 0.748821
vt 0.238977 0.840858
vt 0.287253 0.840858
vt 0.287253 0.937435
vt 0.238977 0.937435
vt 0.331027 0.840858
vt 0.331027 0.937435
vt 0.238977 0.748821
vt 0.287253 0.748821
vt 0.331027 0.748821
vn 0.343697 -0.866820 -0.361243
vn 0.238200 -0.922473 -0.303815
vn 0.341112 -0.937981 -0.061922
vn 0.445481 -0.889372 -0.102782
vn 0.427163 -0.879452 0.209992
vn 0.541660 -0.821424 0.178514
vn 0.430037 -0.806478 -0.405785
vn 0.551327 -0.821263 -0.146856
vn 0.631953 -0.760517 0.149165
vn -0.343696 0.866820 0.361243
vn -0.445481 0.889372 0.102782
vn -0.341112 0.937981 0.061922
vn -0.238200 0.922473 0.303815
vn -0.541660 0.821424 -0.178514
vn -0.427163 0.879452 -0.209992
vn -0.430037 0.806478 0.405785
vn -0.551327 0.821263 0.146856
vn -0.631953 0.760517 -0.149165
vn -0.185790 -0.820413 0.540745
vn -0.117981 -0.886205 0.448020
vn -0.316313 -0.907582 0.276117
vn -0.390582 -0.849777 0.354014
vn -0.509658 -0.857981 0.064161
vn -0.596752 -0.790601 0.137250
vn -0.241782 -0.751962 0.613266
vn -0.464027 -0.772270 0.433910
vn -0.662882 -0.722132 0.197771
vn 0.185790 0.820413 -0.540745
vn 0.390582 0.849777 -0.354014
vn 0.316314 0.907582 -0.276117
vn 0.117981 0.886205 -0.448020
vn 0.596752 0.790600 -0.137250
vn 0.509658 0.857981 -0.064161
vn 0.241782 0.751962 -0.613266
vn 0.464027 0.772270 -0.433910
vn 0.662882 0.722132 -0.197771
vn -0.275364 -0.825728 -0.492288
vn -0.262129 -0.888551 -0.376518
vn -0.001129 -0.920746 -0.390160
vn 0.000266 -0.866303 -0.499519
vn 0.286966 -0.882021 -0.373751
vn 0.301286 -0.818682 -0.488863
vn -0.282919 -0.759769 -0.585413
vn 0.000462 -0.792132 -0.610349
vn 0.309352 -0.753277 -0.580410
vn 0.275364 0.825728 0.492288
vn -0.000266 0.866303 0.499519
vn 0.001129 0.920746 0.390161
vn 0.262129 0.888551 0.376518
vn -0.301286 0.818682 0.488863
vn -0.286966 0.882021 0.373751
vn 0.282919 0.759769 0.585413
vn -0.000462 0.792132 0.610349
vn -0.309352 0.753277 0.580410
vn -0.005318 -0.978998 0.203801
vn 0.028702 -0.996611 0.077084
vn -0.214535 -0.976474 -0.021778
vn -0.259484 -0.961467 0.090826
vn -0.465638 -0.875506 -0.129112
vn -0.524235 -0.851473 -0.013110
vn -0.034651 -0.949955 0.310459
vn -0.302922 -0.928986 0.212658
vn -0.567031 -0.819180 0.086135
vn 0.005318 0.978998 -0.203801
vn 0.259484 0.961467 -0.090826
vn 0.214535 0.976474 0.021778
vn -0.028702 0.996611 -0.077084
vn 0.524235 0.851473 0.013110
vn 0.465638 0.875506 0.129112
vn 0.034651 0.949955 -0.310459
vn 0.302922 0.928986 -0.212657
vn 0.567031 0.819180 -0.086135
vn -0.142777 -0.950620 -0.275564
vn -0.141315 -0.979096 -0.146290
vn 0.120675 -0.985354 -0.120483
vn 0.133374 -0.961653 -0.239656
vn 0.400039 -0.912796 -0.082289
vn 0.425657 -0.880676 -0.207906
vn -0.142026 -0.912589 -0.383420
vn 0.143656 -0.919549 -0.365776
vn 0.441652 -0.841075 -0.312308
vn 0.142777 0.950620 0.275564
vn -0.133374 0.961653 0.239656
vn -0.120675 0.985354 0.120483
vn 0.141315 0.979096 0.146290
vn -0.425657 0.880676 0.207906
vn -0.400039 0.912796 0.082289
vn 0.142026 0.912589 0.383419
vn -0.143656 0.919549 0.365776
vn -0.441652 0.841075 0.312308
vn -0.289344 -0.955835 0.051570
vn -0.182662 -0.974859 0.127608
vn -0.009618 -0.997530 -0.069586
vn -0.099772 -0.983512 -0.150833
vn 0.182105 -0.942102 -0.281572
vn 0.094035 -0.921080 -0.377849
vn -0.377476 -0.925900 -0.014885
vn -0.197332 -0.951521 -0.235941
vn 0.017524 -0.890397 -0.454847
vn 0.289344 0.955835 -0.051570
vn 0.099772 0.983512 0.150833
vn 0.009618 0.997530 0.069586
vn 0.182662 0.974859 -0.127608
vn -0.094035 0.921080 0.377849
vn -0.182105 0.942102 0.281572
vn 0.377476 0.925900 0.014885
vn 0.197332 0.951521 0.235941
vn -0.017524 0.890397 0.454847
vn -0.020995 -0.853965 -0.519906
vn -0.131600 -0.881881 -0.452734
vn -0.012408 -0.971725 -0.235790
vn 0.096686 -0.952902 -0.287455
vn 0.120116 -0.992502 0.022616
vn 0.242997 -0.969812 -0.020431
vn 0.074908 -0.817782 -0.570632
vn 0.213485 -0.915844 -0.340080
vn 0.344577 -0.937031 -0.056911
vn 0.020995 0.853965 0.519906
vn -0.096686 0.952902 0.287455
vn 0.012408 0.971725 0.235790
vn 0.131599 0.881881 0.452734
vn -0.242997 0.969812 0.020431
vn -0.120116 0.992502 -0.022616
vn -0.074908 0.817782 0.570632
vn -0.213485 0.915844 0.340080
vn -0.344577 0.937031 0.056911
vn 0.241113 -0.872983 -0.423988
vn 0.110938 -0.896563 -0.428798
vn 0.086886 -0.979798 -0.180128
vn 0.206906 -0.964680 -0.163043
vn 0.053338 -0.992632 0.108797
vn 0.180189 -0.973531 0.140605
vn 0.350234 -0.840278 -0.413846
vn 0.334493 -0.931499 -0.142912
vn 0.286027 -0.943764 0.165826
vn -0.241113 0.872982 0.423988
vn -0.206906 0.964680 0.163043
vn -0.086886 0.979798 0.180128
vn -0.110938 0.896563 0.428798
vn -0.180189 0.973531 -0.140605
vn -0.053338 0.992632 -0.108797
vn -0.350234 0.840278 0.413846
vn -0.334493 0.931499 0.142912
vn -0.286027 0.943764 -0.165826
vn 0.443094 -0.894630 -0.057489
vn 0.357627 -0.920893 -0.155112
vn 0.155543 -0.987829 -0.000112
vn 0.224804 -0.969380 0.098822
vn -0.079993 -0.982030 0.170936
vn -0.016783 -0.958501 0.284595
vn 0.510718 -0.859302 0.027709
vn 0.297608 -0.932569 0.204317
vn 0.037429 -0.925161 0.377726
vn -0.443094 0.894630 0.057489
vn -0.224804 0.969380 -0.098822
vn -0.155543 0.987829 0.000112
vn -0.357627 0.920893 0.155112
vn 0.016783 0.958501 -0.284595
vn 0.079993 0.982030 -0.170936
vn -0.510718 0.859302 -0.027709
vn -0.297608 0.932569 -0.204317
vn -0.037429 0.925161 -0.377726
vn -0.304555 -0.942546 0.137306
vn -0.177517 -0.976517 0.122072
vn -0.177712 -0.973893 -0.141246
vn -0.296313 -0.944587 -0.141259
vn -0.163595 -0.892460 -0.420419
vn -0.289468 -0.853977 -0.432356
vn -0.410069 -0.899878 0.148537
vn -0.420723 -0.896699 -0.137558
vn -0.392962 -0.809310 -0.436575
vn 0.304555 0.942546 -0.137306
vn 0.296313 0.944587 0.141259
vn 0.177712 0.973893 0.141246
vn 0.177517 0.976517 -0.122072
vn 0.289468 0.853977 0.432356
vn 0.163595 0.892460 0.420419
vn 0.410069 0.899878 -0.148537
vn 0.420723 0.896699 0.137558
vn 0.392962 0.809310 0.436575
s 1
g pPlane36
usemtl lambert2SG
f 7/7/1 3/3/2 6/6/3 8/8/4
f 6/6/3 4/4/5 9/9/6 8/8/4
f 1/1/7 7/7/1 8/8/4 5/5/8
f 9/9/6 2/2/9 5/5/8 8/8/4
s 2
f 16/10/10 17/11/11 15/12/12 12/13/13
f 15/12/12 17/11/11 18/14/14 13/15/15
f 10/16/16 14/17/17 17/11/11 16/10/10
f 18/14/14 17/11/11 14/17/17 11/18/18
s 3
f 25/19/19 21/20/20 24/21/21 26/22/22
f 24/21/21 22/23/23 27/24/24 26/22/22
f 19/25/25 25/19/19 26/22/22 23/26/26
f 27/24/24 20/27/27 23/26/26 26/22/22
s 4
f 34/28/28 35/29/29 33/30/30 30/31/31
f 33/30/30 35/29/29 36/32/32 31/33/33
f 28/34/34 32/35/35 35/29/29 34/28/28
f 36/32/32 35/29/29 32/35/35 29/36/36
s 5
f 43/37/37 39/38/38 42/39/39 44/40/40
f 42/39/39 40/41/41 45/42/42 44/40/40
f 37/43/43 43/37/37 44/40/40 41/44/44
f 45/42/42 38/45/45 41/44/44 44/40/40
s 6
f 52/46/46 53/47/47 51/48/48 48/49/49
f 51/48/48 53/47/47 54/50/50 49/51/51
f 46/52/52 50/53/53 53/47/47 52/46/46
f 54/50/50 53/47/47 50/53/53 47/54/54
s 7
f 61/55/55 57/56/56 60/57/57 62/58/58
f 60/57/57 58/59/59 63/60/60 62/58/58
f 55/61/61 61/55/55 62/58/58 59/62/62
f 63/60/60 56/63/63 59/62/62 62/58/58
s 8
f 70/64/64 71/65/65 69/66/66 66/67/67
f 69/66/66 71/65/65 72/68/68 67/69/69
f 64/70/70 68/71/71 71/65/65 70/64/64
f 72/68/68 71/65/65 68/71/71 65/72/72
s 9
f 79/73/73 75/74/74 78/75/75 80/76/76
f 78/75/75 76/77/77 81/78/78 80/76/76
f 73/79/79 79/73/73 80/76/76 77/80/80
f 81/78/78 74/81/81 77/80/80 80/76/76
s 10
f 88/82/82 89/83/83 87/84/84 84/85/85
f 87/84/84 89/83/83 90/86/86 85/87/87
f 82/88/88 86/89/89 89/83/83 88/82/82
f 90/86/86 89/83/83 86/89/89 83/90/90
s 11
f 97/91/91 93/92/92 96/93/93 98/94/94
f 96/93/93 94/95/95 99/96/96 98/94/94
f 91/97/97 97/91/91 98/94/94 95/98/98
f 99/96/96 92/99/99 95/98/98 98/94/94
s 12
f 106/100/100 107/101/101 105/102/102 102/103/103
f 105/102/102 107/101/101 108/104/104 103/105/105
f 100/106/106 104/107/107 107/101/101 106/100/100
f 108/104/104 107/101/101 104/107/107 101/108/108
s 13
f 115/109/109 111/110/110 114/111/111 116/112/112
f 114/111/111 112/113/113 117/114/114 116/112/112
f 109/115/115 115/109/109 116/112/112 113/116/116
f 117/114/114 110/117/117 113/116/116 116/112/112
s 14
f 124/118/118 125/119/119 123/120/120 120/121/121
f 123/120/120 125/119/119 126/122/122 121/123/123
f 118/124/124 122/125/125 125/119/119 124/118/118
f 126/122/122 125/119/119 122/125/125 119/126/126
s 15
f 133/127/127 129/128/128 132/129/129 134/130/130
f 132/129/129 130/131/131 135/132/132 134/130/130
f 127/133/133 133/127/127 134/130/130 131/134/134
f 135/132/132 128/135/135 131/134/134 134/130/130
s 16
f 142/136/136 143/137/137 141/138/138 138/139/139
f 141/138/138 143/137/137 144/140/140 139/141/141
f 136/142/142 140/143/143 143/137/137 142/136/136
f 144/140/140 143/137/137 140/143/143 137/144/144
s 17
f 151/145/145 147/146/146 150/147/147 152/148/148
f 150/147/147 148/149/149 153/150/150 152/148/148
f 145/151/151 151/145/145 152/148/148 149/152/152
f 153/150/150 146/153/153 149/152/152 152/148/148
s 18
f 160/154/154 161/155/155 159/156/156 156/157/157
f 159/156/156 161/155/155 162/158/158 157/159/159
f 154/160/160 158/161/161 161/155/155 160/154/154
f 162/158/158 161/155/155 158/161/161 155/162/162
s 19
f 169/163/163 165/164/164 168/165/165 170/166/166
f 168/165/165 166/167/167 171/168/168 170/166/166
f 163/169/169 169/163/163 170/166/166 167/170/170
f 171/168/168 164/171/171 167/170/170 170/166/166
s 20
f 178/172/172 179/173/173 177/174/174 174/175/175
f 177/174/174 179/173/173 180/176/176 175/177/177
f 172/178/178 176/179/179 179/173/173 178/172/172
f 180/176/176 179/173/173 176/179/179 173/180/180
